<svg width="108" height="89" viewBox="0 0 108 89" fill="none" xmlns="http://www.w3.org/2000/svg">
    <path fill-rule="evenodd" clip-rule="evenodd"
        d="M42 0C39.7909 0 38 1.79086 38 4C38 6.20914 39.7909 8 42 8H50V18.6557C22.5734 20.8075 3.5 44.9493 3.5 72C3.5 74.2091 5.29086 76 7.5 76C9.70914 76 11.5 74.2091 11.5 72C11.5 47.3473 29.5544 26.5 54 26.5C78.5464 26.5 96.5 46.4565 96.5 71C96.5 73.2091 98.2909 75 100.5 75C102.709 75 104.5 73.2091 104.5 71C104.5 43.8492 85.3406 20.7157 58 18.65V8H65C67.2091 8 69 6.20914 69 4C69 1.79086 67.2091 0 65 0H42ZM0 84.5C0 82.2909 1.79086 80.5 4 80.5H104C106.209 80.5 108 82.2909 108 84.5C108 86.7091 106.209 88.5 104 88.5H4C1.79086 88.5 0 86.7091 0 84.5Z"
        fill="#FF847B" />
</svg>
    