<svg width="500" height="110" viewBox="0 0 500 110" fill="none" xmlns="http://www.w3.org/2000/svg">
    <path fill-rule="evenodd" clip-rule="evenodd"
        d="M52 10.75C49.7909 10.75 48 12.5409 48 14.75C48 16.9591 49.7909 18.75 52 18.75H60V29.4057C32.5734 31.5575 13.5 55.6993 13.5 82.75C13.5 84.9591 15.2909 86.75 17.5 86.75C19.7091 86.75 21.5 84.9591 21.5 82.75C21.5 58.0973 39.5544 37.25 64 37.25C88.5464 37.25 106.5 57.2065 106.5 81.75C106.5 83.9591 108.291 85.75 110.5 85.75C112.709 85.75 114.5 83.9591 114.5 81.75C114.5 54.5992 95.3406 31.4657 68 29.4V18.75H75C77.2091 18.75 79 16.9591 79 14.75C79 12.5409 77.2091 10.75 75 10.75H52ZM10 95.25C10 93.0409 11.7909 91.25 14 91.25H114C116.209 91.25 118 93.0409 118 95.25C118 97.4591 116.209 99.25 114 99.25H14C11.7909 99.25 10 97.4591 10 95.25Z"
        fill="#FF847B" />
    <path
        d="M148.336 82V32.464H153.592V82H148.336ZM151.792 82V77.176H180.952V82H151.792ZM151.792 58.96V54.28H178.648V58.96H151.792ZM151.792 37.288V32.464H180.52V37.288H151.792ZM203.425 82.72C200.209 82.72 197.329 81.952 194.785 80.416C192.241 78.832 190.225 76.72 188.737 74.08C187.297 71.44 186.577 68.464 186.577 65.152C186.577 61.792 187.297 58.792 188.737 56.152C190.225 53.464 192.241 51.352 194.785 49.816C197.329 48.232 200.185 47.44 203.353 47.44C205.945 47.44 208.249 47.968 210.265 49.024C212.329 50.032 213.985 51.472 215.233 53.344C216.529 55.168 217.321 57.304 217.609 59.752V70.336C217.321 72.784 216.529 74.944 215.233 76.816C213.985 78.688 212.329 80.152 210.265 81.208C208.249 82.216 205.969 82.72 203.425 82.72ZM204.217 77.896C207.721 77.896 210.529 76.72 212.641 74.368C214.801 72.016 215.881 68.92 215.881 65.08C215.881 62.536 215.377 60.304 214.369 58.384C213.409 56.416 212.041 54.904 210.265 53.848C208.537 52.744 206.497 52.192 204.145 52.192C201.745 52.192 199.609 52.744 197.737 53.848C195.913 54.952 194.449 56.488 193.345 58.456C192.289 60.376 191.761 62.584 191.761 65.08C191.761 67.576 192.289 69.784 193.345 71.704C194.449 73.624 195.937 75.136 197.809 76.24C199.681 77.344 201.817 77.896 204.217 77.896ZM215.593 82V72.928L216.601 64.576L215.593 56.44V48.16H220.633V82H215.593ZM227.902 79.192L249.286 50.896H255.262L233.878 79.192H227.902ZM227.902 82V79.192L232.294 77.392H254.83V82H227.902ZM229.126 52.696V48.16H255.262V50.896L250.51 52.696H229.126ZM274.01 82.144L259.178 48.16H264.722L276.674 76.528H274.586L287.186 48.16H292.802L276.89 82.144H274.01ZM264.794 96.256L274.082 77.032L276.89 82.144L270.338 96.256H264.794ZM323.025 82.648C319.521 82.648 316.257 82 313.233 80.704C310.209 79.408 307.569 77.608 305.313 75.304C303.057 73 301.305 70.312 300.057 67.24C298.809 64.12 298.185 60.76 298.185 57.16C298.185 53.56 298.809 50.224 300.057 47.152C301.353 44.08 303.129 41.392 305.385 39.088C307.641 36.736 310.305 34.912 313.377 33.616C316.449 32.32 319.785 31.672 323.385 31.672C327.369 31.672 331.017 32.464 334.329 34.048C337.689 35.632 340.449 37.864 342.609 40.744L338.937 44.416C337.209 41.968 335.001 40.096 332.313 38.8C329.625 37.456 326.649 36.784 323.385 36.784C319.497 36.784 316.065 37.672 313.089 39.448C310.113 41.176 307.785 43.576 306.105 46.648C304.473 49.72 303.657 53.248 303.657 57.232C303.657 61.168 304.473 64.672 306.105 67.744C307.785 70.816 310.065 73.24 312.945 75.016C315.873 76.744 319.185 77.608 322.881 77.608C326.577 77.608 329.769 76.864 332.457 75.376C335.193 73.888 337.281 71.728 338.721 68.896C340.209 66.064 340.977 62.656 341.025 58.672L344.049 60.904H322.377V56.08H346.497V56.872C346.497 62.44 345.489 67.144 343.473 70.984C341.505 74.824 338.769 77.728 335.265 79.696C331.761 81.664 327.681 82.648 323.025 82.648ZM368.488 82.72C365.752 82.72 363.304 82.096 361.144 80.848C358.984 79.552 357.28 77.8 356.032 75.592C354.832 73.384 354.232 70.792 354.232 67.816V48.16H359.344V67.6C359.344 69.664 359.704 71.464 360.424 73C361.192 74.536 362.272 75.736 363.664 76.6C365.056 77.464 366.664 77.896 368.488 77.896C371.32 77.896 373.552 76.96 375.184 75.088C376.864 73.216 377.704 70.72 377.704 67.6V48.16H382.744V67.816C382.744 70.744 382.144 73.336 380.944 75.592C379.744 77.848 378.064 79.6 375.904 80.848C373.744 82.096 371.272 82.72 368.488 82.72ZM407.775 82.72C404.367 82.72 401.319 81.952 398.631 80.416C395.943 78.88 393.807 76.768 392.223 74.08C390.687 71.392 389.919 68.368 389.919 65.008C389.919 61.696 390.687 58.72 392.223 56.08C393.759 53.392 395.847 51.28 398.487 49.744C401.127 48.208 404.079 47.44 407.343 47.44C410.415 47.44 413.127 48.136 415.479 49.528C417.879 50.92 419.751 52.864 421.095 55.36C422.487 57.808 423.183 60.64 423.183 63.856C423.183 64.24 423.159 64.696 423.111 65.224C423.063 65.704 422.967 66.28 422.823 66.952H393.519V62.632H420.087L418.287 64.216C418.335 61.72 417.903 59.584 416.991 57.808C416.127 55.984 414.855 54.592 413.175 53.632C411.543 52.624 409.551 52.12 407.199 52.12C404.751 52.12 402.615 52.648 400.791 53.704C398.967 54.76 397.527 56.248 396.471 58.168C395.463 60.04 394.959 62.272 394.959 64.864C394.959 67.456 395.487 69.736 396.543 71.704C397.647 73.672 399.159 75.208 401.079 76.312C403.047 77.416 405.303 77.968 407.847 77.968C409.911 77.968 411.807 77.608 413.535 76.888C415.263 76.12 416.727 74.992 417.927 73.504L421.167 76.816C419.583 78.688 417.615 80.152 415.263 81.208C412.959 82.216 410.463 82.72 407.775 82.72ZM441.261 82.72C439.437 82.72 437.685 82.48 436.005 82C434.325 81.472 432.789 80.752 431.397 79.84C430.053 78.928 428.877 77.848 427.869 76.6L431.109 73.288C432.453 74.92 433.965 76.144 435.645 76.96C437.373 77.728 439.293 78.112 441.405 78.112C443.661 78.112 445.413 77.68 446.661 76.816C447.957 75.952 448.605 74.752 448.605 73.216C448.605 71.776 448.149 70.648 447.237 69.832C446.325 69.016 445.149 68.368 443.709 67.888C442.317 67.408 440.829 66.952 439.245 66.52C437.661 66.04 436.149 65.464 434.709 64.792C433.269 64.072 432.093 63.088 431.181 61.84C430.317 60.592 429.885 58.96 429.885 56.944C429.885 55.024 430.341 53.368 431.253 51.976C432.213 50.536 433.557 49.432 435.285 48.664C437.061 47.848 439.149 47.44 441.549 47.44C444.093 47.44 446.397 47.896 448.461 48.808C450.525 49.72 452.181 51.064 453.429 52.84L450.189 56.08C449.181 54.784 447.909 53.8 446.373 53.128C444.885 52.408 443.205 52.048 441.333 52.048C439.173 52.048 437.517 52.48 436.365 53.344C435.261 54.16 434.709 55.24 434.709 56.584C434.709 57.88 435.165 58.912 436.077 59.68C436.989 60.4 438.141 61 439.533 61.48C440.973 61.912 442.485 62.368 444.069 62.848C445.653 63.28 447.165 63.88 448.605 64.648C450.045 65.368 451.197 66.376 452.061 67.672C452.973 68.92 453.429 70.624 453.429 72.784C453.429 75.808 452.325 78.232 450.117 80.056C447.957 81.832 445.005 82.72 441.261 82.72ZM466.665 82V33.904H471.705V82H466.665ZM458.097 52.696V48.16H480.201V52.696H458.097Z"
        fill="white" />
</svg>